<?xml version="1.0" encoding="UTF-8" standalone="no"?>
<svg
   xmlns:dc="http://purl.org/dc/elements/1.1/"
   xmlns:cc="http://creativecommons.org/ns#"
   xmlns:rdf="http://www.w3.org/1999/02/22-rdf-syntax-ns#"
   xmlns:svg="http://www.w3.org/2000/svg"
   xmlns="http://www.w3.org/2000/svg"
   xmlns:sodipodi="http://sodipodi.sourceforge.net/DTD/sodipodi-0.dtd"
   xmlns:inkscape="http://www.inkscape.org/namespaces/inkscape"
   height="18px"
   version="1.1"
   viewBox="0 0 18 18"
   width="18px"
   id="svg924"
   sodipodi:docname="iconfinder_box_check_326561.svg"
   inkscape:version="1.0.1 (c497b03c, 2020-09-10)">
  <metadata
     id="metadata928">
    <rdf:RDF>
      <cc:Work
         rdf:about="">
        <dc:format>image/svg+xml</dc:format>
        <dc:type
           rdf:resource="http://purl.org/dc/dcmitype/StillImage" />
      </cc:Work>
    </rdf:RDF>
  </metadata>
  <sodipodi:namedview
     pagecolor="#ffffff"
     bordercolor="#666666"
     borderopacity="1"
     objecttolerance="10"
     gridtolerance="10"
     guidetolerance="10"
     inkscape:pageopacity="0"
     inkscape:pageshadow="2"
     inkscape:window-width="2560"
     inkscape:window-height="1395"
     id="namedview926"
     showgrid="false"
     inkscape:zoom="56"
     inkscape:cx="9"
     inkscape:cy="9"
     inkscape:window-x="0"
     inkscape:window-y="23"
     inkscape:window-maximized="1"
     inkscape:current-layer="g943" />
  <title
     id="title914" />
  <desc
     id="desc916" />
  <defs
     id="defs918" />
  <g
     inkscape:groupmode="layer"
     id="layer5"
     inkscape:label="content: black"
     style="display:none">
    <g
       fill="none"
       fill-rule="evenodd"
       id="Page-1"
       stroke="none"
       stroke-width="1">
      <g
         fill="#000000"
         id="Core"
         transform="translate(-549,-45)">
        <g
           id="check-box-outline"
           transform="translate(549,45)">
          <path
             d="M 4.9,7.1 3.5,8.5 8,13 18,3 16.6,1.6 8,10.2 Z M 16,16 H 2 V 2 H 12 V 0 H 2 C 0.9,0 0,0.9 0,2 v 14 c 0,1.1 0.9,2 2,2 h 14 c 1.1,0 2,-0.9 2,-2 V 8 h -2 z"
             id="Shape" />
        </g>
      </g>
    </g>
  </g>
  <g
     inkscape:groupmode="layer"
     id="g943"
     inkscape:label="content: white">
    <g
       fill="none"
       fill-rule="evenodd"
       id="g941"
       stroke="none"
       stroke-width="1"
       style="fill:#ffffff">
      <g
         fill="#000000"
         id="g939"
         transform="translate(-549.000000, -45.000000)"
         style="fill:#ffffff">
        <g
           id="g937"
           transform="translate(549.000000, 45.000000)"
           style="fill:#ffffff">
          <path
             d="M4.9,7.1 L3.5,8.5 L8,13 L18,3 L16.6,1.6 L8,10.2 L4.9,7.1 L4.9,7.1 Z M16,16 L2,16 L2,2 L12,2 L12,0 L2,0 C0.9,0 0,0.9 0,2 L0,16 C0,17.1 0.9,18 2,18 L16,18 C17.1,18 18,17.1 18,16 L18,8 L16,8 L16,16 L16,16 Z"
             id="path935"
             style="fill:#ffffff" />
        </g>
      </g>
    </g>
  </g>
</svg>
