<?xml version="1.0" encoding="UTF-8" standalone="no"?>
<svg
   xmlns:dc="http://purl.org/dc/elements/1.1/"
   xmlns:cc="http://creativecommons.org/ns#"
   xmlns:rdf="http://www.w3.org/1999/02/22-rdf-syntax-ns#"
   xmlns:svg="http://www.w3.org/2000/svg"
   xmlns="http://www.w3.org/2000/svg"
   xmlns:sodipodi="http://sodipodi.sourceforge.net/DTD/sodipodi-0.dtd"
   xmlns:inkscape="http://www.inkscape.org/namespaces/inkscape"
   class="bi bi-qr-code-scan"
   fill="currentColor"
   height="16"
   viewBox="0 0 16 16"
   width="16"
   version="1.1"
   id="svg20"
   sodipodi:docname="iconfinder_qr_code_scan_9040683.svg"
   inkscape:version="1.0.1 (c497b03c, 2020-09-10)">
  <metadata
     id="metadata26">
    <rdf:RDF>
      <cc:Work
         rdf:about="">
        <dc:format>image/svg+xml</dc:format>
        <dc:type
           rdf:resource="http://purl.org/dc/dcmitype/StillImage" />
      </cc:Work>
    </rdf:RDF>
  </metadata>
  <defs
     id="defs24" />
  <sodipodi:namedview
     pagecolor="#ffffff"
     bordercolor="#666666"
     borderopacity="1"
     objecttolerance="10"
     gridtolerance="10"
     guidetolerance="10"
     inkscape:pageopacity="0"
     inkscape:pageshadow="2"
     inkscape:window-width="2233"
     inkscape:window-height="1395"
     id="namedview22"
     showgrid="false"
     inkscape:zoom="40.915468"
     inkscape:cx="10.733652"
     inkscape:cy="6.6032871"
     inkscape:window-x="0"
     inkscape:window-y="23"
     inkscape:window-maximized="0"
     inkscape:current-layer="g883" />
  <g
     inkscape:groupmode="layer"
     id="layer1"
     inkscape:label="background"
     style="display:none">
    <rect
       style="fill:#000000;stroke:#ee8cf8;stroke-width:0;stroke-miterlimit:4;stroke-dasharray:none;stroke-opacity:0.8"
       id="rect28"
       width="16.038382"
       height="16.042007"
       x="-0.018908927"
       y="-0.018648095" />
  </g>
  <g
     inkscape:groupmode="layer"
     id="layer2"
     inkscape:label="content: white">
    <path
       d="M 0,0.5 A 0.5,0.5 0 0 1 0.5,0 h 3 a 0.5,0.5 0 0 1 0,1 H 1 v 2.5 a 0.5,0.5 0 0 1 -1,0 z m 12,0 A 0.5,0.5 0 0 1 12.5,0 h 3 A 0.5,0.5 0 0 1 16,0.5 v 3 a 0.5,0.5 0 0 1 -1,0 V 1 H 12.5 A 0.5,0.5 0 0 1 12,0.5 Z M 0.5,12 A 0.5,0.5 0 0 1 1,12.5 V 15 h 2.5 a 0.5,0.5 0 0 1 0,1 h -3 A 0.5,0.5 0 0 1 0,15.5 v -3 A 0.5,0.5 0 0 1 0.5,12 Z m 15,0 a 0.5,0.5 0 0 1 0.5,0.5 v 3 A 0.5,0.5 0 0 1 15.5,16 h -3 a 0.5,0.5 0 0 1 0,-1 H 15 V 12.5 A 0.5,0.5 0 0 1 15.5,12 Z M 4,4 H 5 V 5 H 4 Z"
       id="path10"
       style="fill:#ffffff" />
    <path
       d="M 7,2 H 2 V 7 H 7 Z M 3,3 H 6 V 6 H 3 Z m 2,8 H 4 v 1 h 1 z"
       id="path12"
       style="fill:#ffffff" />
    <path
       d="M 7,9 H 2 v 5 h 5 z m -4,1 h 3 v 3 H 3 Z m 8,-6 h 1 v 1 h -1 z"
       id="path14"
       style="fill:#ffffff" />
    <path
       d="m 9,2 h 5 V 7 H 9 Z m 1,1 v 3 h 3 V 3 Z M 8,8 v 2 h 1 v 1 H 8 v 1 h 2 v -2 h 1 v 2 h 1 v -1 h 2 V 10 H 11 V 8 Z m 2,2 H 9 V 9 h 1 z m 4,2 h -1 v 1 h -2 v 1 h 3 z m -4,2 V 13 H 8 v 1 z"
       id="path16"
       style="fill:#ffffff" />
    <path
       d="m 12,9 h 2 V 8 h -2 z"
       id="path18"
       style="fill:#ffffff" />
  </g>
  <g
     inkscape:groupmode="layer"
     id="g883"
     inkscape:label="content: black">
    <path
       d="M 0,0.5 A 0.5,0.5 0 0 1 0.5,0 h 3 a 0.5,0.5 0 0 1 0,1 H 1 v 2.5 a 0.5,0.5 0 0 1 -1,0 z m 12,0 A 0.5,0.5 0 0 1 12.5,0 h 3 A 0.5,0.5 0 0 1 16,0.5 v 3 a 0.5,0.5 0 0 1 -1,0 V 1 H 12.5 A 0.5,0.5 0 0 1 12,0.5 Z M 0.5,12 A 0.5,0.5 0 0 1 1,12.5 V 15 h 2.5 a 0.5,0.5 0 0 1 0,1 h -3 A 0.5,0.5 0 0 1 0,15.5 v -3 A 0.5,0.5 0 0 1 0.5,12 Z m 15,0 a 0.5,0.5 0 0 1 0.5,0.5 v 3 A 0.5,0.5 0 0 1 15.5,16 h -3 a 0.5,0.5 0 0 1 0,-1 H 15 V 12.5 A 0.5,0.5 0 0 1 15.5,12 Z M 4,4 H 5 V 5 H 4 Z"
       id="path873"
       style="fill:#ffffff" />
    <path
       d="M 7,2 H 2 V 7 H 7 Z M 3,3 H 6 V 6 H 3 Z m 2,8 H 4 v 1 h 1 z"
       id="path875"
       style="fill:#ffffff" />
    <path
       d="M 7,9 H 2 v 5 h 5 z m -4,1 h 3 v 3 H 3 Z m 8,-6 h 1 v 1 h -1 z"
       id="path877"
       style="fill:#ffffff" />
    <path
       d="m 9,2 h 5 V 7 H 9 Z m 1,1 v 3 h 3 V 3 Z M 8,8 v 2 h 1 v 1 H 8 v 1 h 2 v -2 h 1 v 2 h 1 v -1 h 2 V 10 H 11 V 8 Z m 2,2 H 9 V 9 h 1 z m 4,2 h -1 v 1 h -2 v 1 h 3 z m -4,2 V 13 H 8 v 1 z"
       id="path879"
       style="fill:#ffffff" />
    <path
       d="m 12,9 h 2 V 8 h -2 z"
       id="path881"
       style="fill:#ffffff" />
  </g>
</svg>
